HIERARCHY
ROOT Hips
{
     OFFSET 29.82960 100.00400 6.26971
     CHANNELS 6 Xposition Yposition Zposition Zrotation Xrotation Yrotation
     JOINT Spine
     {
          OFFSET 0.00000 11.89050 -0.00000
          CHANNELS 3 Zrotation Xrotation Yrotation
          JOINT Spine1
          {
               OFFSET 0.00000 25.65740 0.12766
               CHANNELS 3 Zrotation Xrotation Yrotation
               JOINT HEad
               {
                    OFFSET 0.00000 8.73416 0.01134
                    CHANNELS 3 Zrotation Xrotation Yrotation
                    End Site
                    {
                         OFFSET -0.29000 12.77420 2.51395
                    }
               }
               JOINT LeftShoulder1
               {
                    OFFSET 8.99000 -0.36225 -0.22000
                    CHANNELS 3 Zrotation Xrotation Yrotation
                    JOINT LeftArm
                    {
                         OFFSET 10.28270 -0.00338 0.32212
                         CHANNELS 3 Zrotation Xrotation Yrotation
                         JOINT LeftForeArm
                         {
                              OFFSET 32.76690 0.09914 -1.42434
                              CHANNELS 3 Zrotation Xrotation Yrotation
                              JOINT LeftHand
                              {
                                   OFFSET 27.56430 0.08536 1.02216
                                   CHANNELS 3 Zrotation Xrotation Yrotation
                                   End Site
                                   {
                                        OFFSET 16.74430 -0.60000 1.50291
                                   }
                              }
                         }
                    }
               }
               JOINT RightShoulder
               {
                    OFFSET -8.99000 -0.36225 -0.22000
                    CHANNELS 3 Zrotation Xrotation Yrotation
                    JOINT RightArm
                    {
                         OFFSET -10.28270 -0.00338 0.32212
                         CHANNELS 3 Zrotation Xrotation Yrotation
                         JOINT RightForeArm
                         {
                              OFFSET -32.89710 0.09914 -1.42434
                              CHANNELS 3 Zrotation Xrotation Yrotation
                              JOINT RightHand
                              {
                                   OFFSET -27.49210 0.08536 1.02216
                                   CHANNELS 3 Zrotation Xrotation Yrotation
                                   End Site
                                   {
                                        OFFSET -16.63120 -0.60000 1.50291
                                   }
                              }
                         }
                    }
               }
          }
     }
     JOINT LeftUpLeg
     {
          OFFSET 8.94580 -8.66707 0.10165
          CHANNELS 3 Zrotation Xrotation Yrotation
          JOINT LeftLeg
          {
               OFFSET -0.00000 -44.42270 1.37270
               CHANNELS 3 Zrotation Xrotation Yrotation
               JOINT LeftFoot
               {
                    OFFSET -0.25355 -42.09240 -1.46059
                    CHANNELS 3 Zrotation Xrotation Yrotation
                    JOINT LeftToes
                    {
                         OFFSET -0.04000 -4.41509 8.49910
                         CHANNELS 3 Zrotation Xrotation Yrotation
                         End Site
                         {
                              OFFSET 0.08000 -0.04745 9.77979
                         }
                    }
               }
          }
     }
     JOINT RightUpLeg
     {
          OFFSET -8.94580 -8.66707 0.10165
          CHANNELS 3 Zrotation Xrotation Yrotation
          JOINT RightLeg
          {
               OFFSET -0.00000 -44.42270 1.37270
               CHANNELS 3 Zrotation Xrotation Yrotation
               JOINT RightFoot
               {
                    OFFSET 0.25355 -42.09240 -1.46059
                    CHANNELS 3 Zrotation Xrotation Yrotation
                    JOINT RightToes
                    {
                         OFFSET 0.04000 -4.41509 8.49910
                         CHANNELS 3 Zrotation Xrotation Yrotation
                         End Site
                         {
                              OFFSET -0.08000 -0.13745 9.77979
                         }
                    }
               }
          }
     }
}
MOTION
Frames: 17
Frame Time: 0.01667
50.76330 92.61490 22.26010 -9.80786 11.61080 -117.00400 -5.55698 9.82150 1.35216 -10.73670 19.67090 3.96581 14.94590 3.11221 -2.23567 -0.00000 -0.00000 0.00000 -73.51160 -75.88760 -56.99090 -22.75880 34.33070 -83.79390 5.55594 9.67997 -0.87718 9.51061 0.62027 1.98768 4.90969 -6.54139 24.44760 -10.50440 -5.29653 20.37030 -5.55712 9.68432 0.87760 16.89060 -7.46098 -0.65400 7.77056 49.26930 -10.85980 -18.75210 -3.11635 0.75523 -2.98797 -44.24210 -21.75820 -0.98417 -16.63590 -0.42463 -14.76720 7.22221 49.61700 37.93520 -1.80526 -2.14674 13.15890 13.82160 -5.14917 
51.69690 93.48290 23.64740 -8.54766 12.25650 -119.22200 -5.87592 9.65017 -0.13918 -11.36250 19.42460 0.95836 14.01540 4.38662 3.79931 -0.00000 -0.00000 0.00000 -55.90430 -75.00270 -41.29770 -22.48270 34.21700 -84.95210 5.55594 9.67997 -0.87718 13.43310 0.78312 2.17647 2.90017 -15.41680 9.31690 -6.00463 -1.48593 31.23440 -5.55712 9.68432 0.87760 17.66800 -6.59299 -0.82301 5.13914 46.11200 -6.72142 -15.34300 -2.91180 0.64308 -2.65893 -44.07850 -20.30420 0.79792 -17.70470 -1.23959 -13.98560 9.36395 39.20700 35.17150 -0.26147 -2.46689 11.95400 11.45100 -6.04013 
52.53850 94.37600 25.00850 -7.08234 12.50080 -120.22500 -5.70659 9.32870 -2.04496 -11.72740 18.82250 -2.91116 13.28350 6.56098 8.82691 -0.00000 -0.00000 0.00000 -40.90830 -72.41570 -27.58220 -22.01330 34.05810 -86.60600 5.55594 9.67997 -0.87718 16.17170 0.87494 2.14437 -1.63554 -24.20790 -6.39307 -1.56447 3.99343 40.80600 -5.55712 9.68432 0.87760 18.19060 -6.76402 -0.42165 3.32674 43.30130 -3.53670 -10.95780 -3.24840 0.42837 -1.90493 -42.90640 -17.51930 2.00346 -19.20080 -2.11654 -13.33140 14.21180 28.31570 29.47710 -1.67699 -1.70802 10.67590 10.18610 -5.47476 
53.29180 95.13850 26.31890 -5.69351 12.38840 -120.69400 -5.33588 8.84967 -4.14376 -11.98660 17.95120 -7.13307 12.68250 9.40044 13.42090 -0.00000 -0.00000 0.00000 -31.69070 -69.09530 -18.81020 -21.44160 33.88160 -88.30290 5.55594 9.67997 -0.87718 17.36890 0.82827 1.69251 -8.68664 -31.04230 -22.77430 2.43576 9.70258 49.25600 -5.55712 9.68432 0.87760 18.46630 -7.60602 0.73728 2.19070 41.19220 -1.91647 -7.09362 -4.04170 0.23390 -1.05139 -40.62480 -14.50150 2.60087 -20.89120 -2.74575 -12.56270 21.01310 19.78500 23.35290 -5.17086 -0.67219 10.21820 10.55570 -4.20786 
53.97700 95.67580 27.58370 -4.58763 12.04360 -121.51100 -5.00790 8.27032 -6.11461 -12.24440 16.94920 -11.05970 12.17650 12.32280 18.14860 -0.00000 -0.00000 0.00000 -27.27370 -66.08310 -14.03140 -20.89080 33.72490 -89.78530 5.55594 9.67997 -0.87718 17.35910 0.66104 0.84775 -16.20710 -33.89010 -37.79520 5.06403 13.51750 56.47820 -5.55712 9.68432 0.87760 18.56800 -8.55310 2.41445 1.38132 39.85790 -1.29894 -5.06533 -4.58994 0.14848 -0.50964 -38.24660 -12.65520 2.77701 -22.27440 -2.68345 -11.50370 28.57330 14.79610 18.70970 -8.56465 -0.02730 9.60683 10.67200 -2.98888 
54.63220 95.97570 28.87240 -3.82309 11.63550 -123.51000 -4.85407 7.66459 -7.66424 -12.49790 15.91950 -14.14660 11.78110 14.69980 23.30070 -0.00000 -0.00000 0.00000 -25.82810 -63.96120 -11.69660 -20.44880 33.59480 -90.95050 5.55594 9.67997 -0.87718 16.80650 0.45965 -0.12962 -21.66650 -33.68260 -48.77690 6.09077 14.69260 62.52670 -5.55712 9.68432 0.87760 18.65470 -9.10163 4.10972 0.29752 39.14020 -0.08285 -4.94211 -4.11125 0.16295 -0.41532 -37.32690 -12.65550 2.87828 -22.96090 -1.66296 -10.19530 35.97550 13.27240 16.26680 -10.92480 0.27894 8.48990 9.96932 -1.89054 
55.29850 96.06090 30.28610 -3.37472 11.30680 -127.15000 -4.90629 7.07260 -8.65481 -12.65680 14.88750 -16.13120 11.43730 16.12700 28.75520 -0.00000 -0.00000 0.00000 -25.81810 -62.90150 -10.69980 -20.19640 33.52620 -91.72780 5.55594 9.67997 -0.87718 16.23280 0.29894 -0.94158 -25.29010 -32.77370 -55.58860 6.25953 14.30020 67.44380 -5.55712 9.68432 0.87760 18.82090 -8.99136 5.38035 -1.59646 38.83620 3.11048 -5.91773 -2.53742 0.26517 -0.72122 -38.31920 -14.18830 3.11513 -22.82310 0.07268 -9.05971 42.76080 14.55070 15.84950 -12.72770 0.51045 7.76038 9.54719 -1.10341 
55.98060 95.97270 31.88500 -3.09565 11.13780 -132.44299 -5.00168 6.50352 -9.09144 -12.61490 13.82500 -17.03030 10.96680 16.47010 34.02170 -0.00000 -0.00000 0.00000 -26.23130 -62.83320 -10.44930 -20.20000 33.59300 -92.04790 5.55594 9.67997 -0.87718 15.82420 0.20546 -1.43362 -28.30640 -32.57110 -59.35940 6.34705 13.66540 71.28070 -5.55712 9.68432 0.87760 19.05090 -8.28589 6.13292 -4.30891 38.75990 8.48211 -7.15333 -0.47040 0.43707 -1.31726 -40.38940 -16.38810 3.39765 -21.99030 1.88260 -8.74526 48.76640 17.46810 16.59750 -14.42160 0.78653 8.16930 10.14390 -1.08408 
56.64850 95.74390 33.67090 -2.80008 11.06310 -139.01801 -4.97322 5.94572 -9.06210 -12.32350 12.70250 -17.02250 10.20450 15.76420 38.47470 -0.00000 -0.00000 0.00000 -26.59830 -63.54840 -10.78030 -20.45970 33.83010 -91.89290 5.55594 9.67997 -0.87718 15.54300 0.17127 -1.61744 -31.23470 -33.49690 -60.97180 6.68965 13.50650 74.12820 -5.55712 9.68432 0.87760 19.22710 -7.34718 6.64997 -7.29589 38.83480 15.06740 -8.19992 1.51663 0.63277 -2.04845 -42.68350 -18.49970 3.31311 -20.80890 3.18097 -9.64452 54.04270 20.53060 17.42930 -15.78630 1.04379 9.26178 10.95070 -2.02666 
57.26150 95.40040 35.57630 -2.37934 10.93000 -146.27901 -4.74988 5.40758 -8.69229 -11.79380 11.56040 -16.34100 9.15008 14.12650 41.68960 -0.00000 -0.00000 0.00000 -26.86750 -64.79870 -11.77900 -20.89540 34.18230 -91.33790 5.55594 9.67997 -0.87718 15.33350 0.17853 -1.57505 -33.83680 -35.42290 -60.84520 7.21787 13.83390 76.01950 -5.55712 9.68432 0.87760 19.28990 -6.59958 7.26727 -9.91680 39.10430 21.46360 -9.06128 3.25512 0.82839 -2.80812 -44.91610 -20.21100 2.41049 -19.63460 3.74496 -11.63720 58.68960 22.48270 17.52130 -16.49850 1.15924 10.00100 10.81750 -3.49666 
57.81200 94.94420 37.50460 -1.85647 10.63420 -153.61800 -4.41929 4.93107 -8.09867 -11.09270 10.51920 -15.22220 7.96792 11.76350 43.69190 -0.00000 -0.00000 0.00000 -27.18710 -66.39860 -13.54150 -21.40420 34.55460 -90.52360 5.55594 9.67997 -0.87718 15.24040 0.21792 -1.35312 -35.67800 -37.89720 -59.16030 7.70394 14.27680 76.94440 -5.55712 9.68432 0.87760 19.31830 -6.32039 8.09025 -11.85580 39.72240 26.54570 -9.93555 4.66661 1.02525 -3.51109 -46.96520 -21.41410 0.45989 -18.64570 3.68227 -14.34970 62.75140 22.92240 16.55780 -16.64070 1.10224 9.82469 9.67004 -4.66142 
58.32970 94.38180 39.39510 -1.31155 10.20010 -160.58000 -4.08927 4.57632 -7.38609 -10.31340 9.72147 -13.87650 6.83519 8.99648 44.92790 -0.00000 -0.00000 0.00000 -27.73660 -68.26070 -16.01410 -21.92880 34.89060 -89.58100 5.55594 9.67997 -0.87718 15.33640 0.28899 -0.95864 -36.52310 -40.33010 -56.10340 7.96701 14.45470 76.94940 -5.55712 9.68432 0.87760 19.47190 -6.51498 9.01637 -13.15150 40.74140 29.80280 -10.91280 5.61485 1.21500 -4.05898 -48.63910 -22.08410 -2.48512 -17.76150 3.27730 -17.31700 66.05450 22.29220 14.75100 -16.33940 0.91673 8.83340 8.27272 -4.75222 
58.85440 93.73600 41.22950 -0.77304 9.73840 -166.92101 -3.78246 4.38992 -6.64500 -9.52537 9.25770 -12.47190 5.80390 6.20557 45.98310 -0.00000 -0.00000 0.00000 -28.73070 -70.35270 -19.06270 -22.46200 35.19160 -88.58640 5.55594 9.67997 -0.87718 15.55680 0.38383 -0.44432 -36.34310 -42.23490 -52.00750 7.94408 14.16840 76.23990 -5.55712 9.68432 0.87760 19.90980 -6.97562 9.90051 -14.01630 42.03270 31.38820 -11.88870 6.09593 1.37550 -4.44288 -49.88190 -22.41090 -6.14568 -16.75320 2.88256 -19.77150 68.25430 21.20450 12.66280 -15.44010 0.65608 7.50917 7.20935 -3.78048 
59.42510 93.03920 43.00900 -0.18633 9.34063 -172.54100 -3.43060 4.36898 -5.94794 -8.73522 9.12639 -11.12700 4.80470 3.72773 47.26040 -0.00000 -0.00000 0.00000 -30.52930 -72.62900 -22.71290 -22.99260 35.47320 -87.58800 5.55594 9.67997 -0.87718 15.66100 0.47398 0.04363 -35.28200 -43.41080 -47.43850 7.70227 13.48560 75.20540 -5.55712 9.68432 0.87760 20.75230 -7.46540 10.65610 -14.71190 43.36860 31.98010 -12.60440 6.38916 1.49237 -4.79184 -50.93030 -22.73180 -10.07330 -15.40360 2.83566 -20.70400 68.98040 19.83590 10.97880 -13.66580 0.37494 6.34610 6.50326 -2.56595 
60.07280 92.34820 44.73490 0.53891 8.98373 -177.40601 -2.92389 4.45854 -5.34809 -7.90734 9.23269 -9.91237 3.78645 1.77903 48.83400 -0.00000 -0.00000 0.00000 -33.66280 -74.97210 -27.30670 -23.46410 35.72780 -86.66610 5.55594 9.67997 -0.87718 15.44520 0.52677 0.35640 -33.79460 -43.95940 -43.20330 7.41720 12.73000 74.30430 -5.55712 9.68432 0.87760 22.04510 -7.88240 11.29080 -15.43420 44.50700 32.40690 -12.79460 6.90122 1.56968 -5.24275 -52.10560 -23.23870 -13.70690 -13.56750 3.36451 -19.63960 67.81980 18.13800 10.27060 -10.68330 0.08324 5.29058 5.65167 -1.72311 
60.83170 91.72410 46.40290 1.41926 8.50222 178.50600 -2.23997 4.56353 -4.87010 -7.04051 9.39969 -8.87535 2.82636 0.42727 50.53910 -0.00000 -0.00000 0.00000 -38.75060 -77.21200 -33.44530 -23.84850 35.97030 -85.91270 5.55594 9.67997 -0.87718 14.97460 0.53663 0.46423 -32.60760 -44.13730 -40.12240 7.28189 12.30170 73.88420 -5.55712 9.68432 0.87760 23.71070 -8.36989 11.91090 -16.16680 45.34900 33.16400 -12.44290 7.77521 1.61375 -5.76592 -53.41510 -23.79110 -16.53740 -11.18920 4.48706 -17.41770 64.39600 16.59140 11.00970 -6.49816 -0.27681 3.87496 3.97177 -1.34913 
61.76040 91.18420 48.01070 2.30601 7.67158 175.22600 -1.53367 4.58684 -4.50412 -6.22099 9.42418 -8.06959 2.08227 -0.38506 52.13850 -0.00000 -0.00000 0.00000 -46.44320 -79.20330 -41.87250 -24.22610 36.27410 -85.34720 5.55594 9.67997 -0.87718 14.50120 0.52161 0.43272 -32.31800 -44.17500 -38.69440 7.40528 12.45120 74.09420 -5.55712 9.68432 0.87760 25.52350 -9.28140 12.64030 -16.65680 46.02370 34.19730 -11.85220 8.77139 1.63010 -6.15071 -54.50150 -24.04410 -18.34880 -8.31735 5.96393 -15.50860 58.68980 15.93900 13.61380 -2.33091 -0.77449 2.18639 1.47096 -1.71552 
